<?xml version="1.0" encoding="UTF-8"?>
<svg xmlns="http://www.w3.org/2000/svg" xmlns:xlink="http://www.w3.org/1999/xlink" width="512" height="512" viewBox="0 0 512 512">
<defs>
<linearGradient id="linear-pattern-0" gradientUnits="userSpaceOnUse" x1="255.999908" y1="5.26911" x2="255.999924" y2="506.730988">
<stop offset="0" stop-color="rgb(47.843137%, 25.098039%, 41.176471%)" stop-opacity="1"/>
<stop offset="1" stop-color="rgb(43.137255%, 30.196078%, 50.196078%)" stop-opacity="1"/>
</linearGradient>
</defs>
<path fill-rule="nonzero" fill="url(#linear-pattern-0)" stroke-width="40" stroke-linecap="butt" stroke-linejoin="miter" stroke="rgb(31.764706%, 19.607843%, 32.156863%)" stroke-opacity="1" stroke-miterlimit="4" d="M 486.730469 256 C 486.730469 383.429688 383.429688 486.730469 256 486.730469 C 128.570312 486.730469 25.269531 383.429688 25.269531 256 C 25.269531 128.570312 128.570312 25.269531 256 25.269531 C 383.429688 25.269531 486.730469 128.570312 486.730469 256 Z M 486.730469 256 "/>
<path fill-rule="nonzero" fill="rgb(79.215686%, 30.588235%, 47.45098%)" fill-opacity="1" stroke-width="34.642899" stroke-linecap="butt" stroke-linejoin="miter" stroke="rgb(31.764706%, 19.607843%, 32.156863%)" stroke-opacity="1" stroke-miterlimit="4" d="M 161.535156 197.542969 C 193.636719 197.542969 212.953125 224.371094 212.953125 273.039062 C 212.953125 321.703125 193.636719 333.441406 161.535156 333.441406 C 129.433594 333.441406 110.117188 321.703125 110.117188 273.039062 C 110.117188 224.371094 129.433594 197.542969 161.535156 197.542969 Z M 126.445312 387.167969 C 154.886719 388.792969 146.105469 404.96875 171.785156 423.5625 L 272.269531 423.5625 C 252.398438 408.21875 235.269531 405.800781 225.785156 384.515625 C 259.011719 353.667969 276.089844 318.167969 299.957031 258.808594 C 311.296875 230.613281 323.335938 199.808594 299.941406 168.890625 C 278.691406 140.808594 224.007812 145.078125 186.328125 132.691406 C 99.730469 104.230469 33.335938 185.914062 36.34375 274.3125 C 38.566406 339.683594 61.4375 387.167969 121.324219 387.167969 Z M 126.445312 387.167969 "/>
<path fill-rule="nonzero" fill="rgb(79.215686%, 30.588235%, 47.45098%)" fill-opacity="1" stroke-width="34.643002" stroke-linecap="butt" stroke-linejoin="miter" stroke="rgb(31.764706%, 19.607843%, 32.156863%)" stroke-opacity="1" stroke-miterlimit="4" d="M 74.933594 162.664062 C 121.753906 113.117188 251.230469 140.65625 341.464844 154.65625 C 305.9375 223.917969 276.75 335.949219 224.707031 384.644531 C 232.507812 404.339844 257.363281 423.5625 272.269531 423.5625 L 471.566406 423.613281 C 470.03125 344.902344 490.835938 366.164062 342.898438 362.703125 L 457.277344 142.136719 C 457.484375 108.519531 459.332031 101.917969 457.640625 79.289062 C 113.640625 81.148438 100.886719 132.820312 74.933594 162.664062 Z M 74.933594 162.664062 "/>
</svg>
